# Blender 4.2.0
# www.blender.org
mtllib drive_rack.mtl
o drive1
v 0.318328 0.211300 0.375000
v 0.227378 0.575103 0.375000
v 0.318328 0.211300 0.312500
v 0.227378 0.575103 0.312500
v 0.439596 0.241617 0.375000
v 0.439596 0.241617 0.312500
v 0.348645 0.605420 0.312500
v 0.348645 0.605420 0.375000
vn 0.9701 0.2425 -0.0000
vn 0.2425 -0.9701 -0.0000
vn -0.0000 -0.0000 -1.0000
vn -0.2425 0.9701 -0.0000
vn -0.0000 -0.0000 1.0000
vt 0.046875 0.031250
vt 0.031250 0.125000
vt 0.031250 0.031250
vt 0.046875 0.156250
vt 0.046875 0.125000
vt 0.000000 0.125000
vt 0.000000 0.031250
vt 0.031250 0.156250
s 0
usemtl m_bb4047a7-05a3-c8ae-b126-7300f8839885
f 6/1/1 8/2/1 5/3/1
f 5/2/2 3/4/2 6/5/2
f 7/3/3 3/6/3 4/7/3
f 7/2/4 2/4/4 8/5/4
f 8/3/5 1/6/5 5/2/5
f 6/1/1 7/5/1 8/2/1
f 5/2/2 1/8/2 3/4/2
f 7/3/3 6/2/3 3/6/3
f 7/2/4 4/8/4 2/4/4
f 8/3/5 2/7/5 1/6/5
o drive10
v 0.212219 0.635737 0.125000
v 0.121268 0.999541 0.125000
v 0.212219 0.635737 0.062500
v 0.121268 0.999541 0.062500
v 0.333487 0.666054 0.125000
v 0.333487 0.666054 0.062500
v 0.242536 1.029858 0.062500
v 0.242536 1.029858 0.125000
vn 0.9701 0.2425 -0.0000
vn 0.2425 -0.9701 -0.0000
vn -0.0000 -0.0000 -1.0000
vn -0.2425 0.9701 -0.0000
vn -0.0000 -0.0000 1.0000
vt 0.046875 0.031250
vt 0.031250 0.125000
vt 0.031250 0.031250
vt 0.046875 0.156250
vt 0.046875 0.125000
vt 0.000000 0.125000
vt 0.000000 0.031250
vt 0.031250 0.156250
s 0
usemtl m_bb4047a7-05a3-c8ae-b126-7300f8839885
f 14/9/6 16/10/6 13/11/6
f 13/10/7 11/12/7 14/13/7
f 15/11/8 11/14/8 12/15/8
f 15/10/9 10/12/9 16/13/9
f 16/10/10 9/15/10 13/11/10
f 14/9/6 15/13/6 16/10/6
f 13/10/7 9/16/7 11/12/7
f 15/11/8 14/10/8 11/14/8
f 15/10/9 12/16/9 10/12/9
f 16/10/10 10/14/10 9/15/10
o drive11
v 0.106109 1.060174 0.125000
v 0.015159 1.423978 0.125000
v 0.106109 1.060174 0.062500
v 0.015159 1.423978 0.062500
v 0.227378 1.090491 0.125000
v 0.227378 1.090491 0.062500
v 0.136426 1.454295 0.062500
v 0.136426 1.454295 0.125000
vn 0.9701 0.2425 -0.0000
vn 0.2425 -0.9701 -0.0000
vn -0.0000 -0.0000 -1.0000
vn -0.2425 0.9701 -0.0000
vn -0.0000 -0.0000 1.0000
vt 0.046875 0.031250
vt 0.031250 0.125000
vt 0.031250 0.031250
vt 0.046875 0.156250
vt 0.046875 0.125000
vt 0.000000 0.031250
vt 0.031250 0.156250
vt 0.000000 0.125000
s 0
usemtl m_bb4047a7-05a3-c8ae-b126-7300f8839885
f 22/17/11 24/18/11 21/19/11
f 21/18/12 19/20/12 22/21/12
f 22/18/13 20/22/13 23/19/13
f 24/21/14 20/23/14 18/20/14
f 21/18/15 18/22/15 17/24/15
f 22/17/11 23/21/11 24/18/11
f 21/18/12 17/23/12 19/20/12
f 22/18/13 19/24/13 20/22/13
f 24/21/14 23/18/14 20/23/14
f 21/18/15 24/19/15 18/22/15
o drive12
v 0.000000 1.484612 0.125000
v -0.090951 1.848415 0.125000
v 0.000000 1.484612 0.062500
v -0.090951 1.848415 0.062500
v 0.121268 1.514929 0.125000
v 0.121268 1.514929 0.062500
v 0.030317 1.878732 0.062500
v 0.030317 1.878732 0.125000
vn 0.9701 0.2425 -0.0000
vn 0.2425 -0.9701 -0.0000
vn -0.0000 -0.0000 -1.0000
vn -0.2425 0.9701 -0.0000
vn -0.0000 -0.0000 1.0000
vt 0.046875 0.031250
vt 0.031250 0.125000
vt 0.031250 0.031250
vt 0.046875 0.156250
vt 0.046875 0.125000
vt 0.000000 0.125000
vt 0.000000 0.031250
vt 0.031250 0.156250
s 0
usemtl m_bb4047a7-05a3-c8ae-b126-7300f8839885
f 30/25/16 32/26/16 29/27/16
f 29/26/17 27/28/17 30/29/17
f 31/27/18 27/30/18 28/31/18
f 31/29/19 26/32/19 32/26/19
f 32/27/20 25/30/20 29/26/20
f 30/25/16 31/29/16 32/26/16
f 29/26/17 25/32/17 27/28/17
f 31/27/18 30/26/18 27/30/18
f 31/29/19 28/28/19 26/32/19
f 32/27/20 26/31/20 25/30/20
o drive13
v 0.318328 0.211300 -0.062500
v 0.227378 0.575103 -0.062500
v 0.318328 0.211300 -0.125000
v 0.227378 0.575103 -0.125000
v 0.439596 0.241617 -0.062500
v 0.439596 0.241617 -0.125000
v 0.348645 0.605420 -0.125000
v 0.348645 0.605420 -0.062500
vn 0.9701 0.2425 -0.0000
vn 0.2425 -0.9701 -0.0000
vn -0.0000 -0.0000 -1.0000
vn -0.2425 0.9701 -0.0000
vn -0.0000 -0.0000 1.0000
vt 0.046875 0.031250
vt 0.031250 0.125000
vt 0.031250 0.031250
vt 0.046875 0.156250
vt 0.046875 0.125000
vt 0.000000 0.125000
vt 0.000000 0.031250
vt 0.031250 0.156250
s 0
usemtl m_bb4047a7-05a3-c8ae-b126-7300f8839885
f 38/33/21 40/34/21 37/35/21
f 37/34/22 35/36/22 38/37/22
f 39/35/23 35/38/23 36/39/23
f 39/34/24 34/36/24 40/37/24
f 40/35/25 33/38/25 37/34/25
f 38/33/21 39/37/21 40/34/21
f 37/34/22 33/40/22 35/36/22
f 39/35/23 38/34/23 35/38/23
f 39/34/24 36/40/24 34/36/24
f 40/35/25 34/39/25 33/38/25
o drive14
v 0.212219 0.635737 -0.062500
v 0.121268 0.999541 -0.062500
v 0.212219 0.635737 -0.125000
v 0.121268 0.999541 -0.125000
v 0.333487 0.666054 -0.062500
v 0.333487 0.666054 -0.125000
v 0.242536 1.029858 -0.125000
v 0.242536 1.029858 -0.062500
vn 0.9701 0.2425 -0.0000
vn 0.2425 -0.9701 -0.0000
vn -0.0000 -0.0000 -1.0000
vn -0.2425 0.9701 -0.0000
vn -0.0000 -0.0000 1.0000
vt 0.046875 0.031250
vt 0.031250 0.125000
vt 0.031250 0.031250
vt 0.046875 0.156250
vt 0.046875 0.125000
vt 0.000000 0.125000
vt 0.000000 0.031250
vt 0.031250 0.156250
s 0
usemtl m_bb4047a7-05a3-c8ae-b126-7300f8839885
f 46/41/26 48/42/26 45/43/26
f 45/42/27 43/44/27 46/45/27
f 47/43/28 43/46/28 44/47/28
f 47/42/29 42/44/29 48/45/29
f 48/43/30 41/46/30 45/42/30
f 46/41/26 47/45/26 48/42/26
f 45/42/27 41/48/27 43/44/27
f 47/43/28 46/42/28 43/46/28
f 47/42/29 44/48/29 42/44/29
f 48/43/30 42/47/30 41/46/30
o drive15
v 0.106109 1.060174 -0.062500
v 0.015159 1.423978 -0.062500
v 0.106109 1.060174 -0.125000
v 0.015159 1.423978 -0.125000
v 0.227378 1.090491 -0.062500
v 0.227378 1.090491 -0.125000
v 0.136426 1.454295 -0.125000
v 0.136426 1.454295 -0.062500
vn 0.9701 0.2425 -0.0000
vn 0.2425 -0.9701 -0.0000
vn -0.0000 -0.0000 -1.0000
vn -0.2425 0.9701 -0.0000
vn -0.0000 -0.0000 1.0000
vt 0.031250 0.031250
vt 0.046875 0.125000
vt 0.031250 0.125000
vt 0.046875 0.156250
vt 0.000000 0.031250
vt 0.000000 0.125000
vt 0.046875 0.031250
vt 0.031250 0.156250
s 0
usemtl m_bb4047a7-05a3-c8ae-b126-7300f8839885
f 53/49/31 55/50/31 56/51/31
f 53/51/32 51/52/32 54/50/32
f 54/51/33 52/53/33 55/49/33
f 55/51/34 50/52/34 56/50/34
f 56/49/35 49/54/35 53/51/35
f 53/49/31 54/55/31 55/50/31
f 53/51/32 49/56/32 51/52/32
f 54/51/33 51/54/33 52/53/33
f 55/51/34 52/56/34 50/52/34
f 56/49/35 50/53/35 49/54/35
o drive16
v 0.000000 1.484612 -0.062500
v -0.090951 1.848415 -0.062500
v 0.000000 1.484612 -0.125000
v -0.090951 1.848415 -0.125000
v 0.121268 1.514929 -0.062500
v 0.121268 1.514929 -0.125000
v 0.030317 1.878732 -0.125000
v 0.030317 1.878732 -0.062500
vn 0.9701 0.2425 -0.0000
vn 0.2425 -0.9701 -0.0000
vn -0.0000 -0.0000 -1.0000
vn -0.2425 0.9701 -0.0000
vn -0.0000 -0.0000 1.0000
vt 0.046875 0.031250
vt 0.031250 0.125000
vt 0.031250 0.031250
vt 0.046875 0.156250
vt 0.046875 0.125000
vt 0.000000 0.125000
vt 0.000000 0.031250
vt 0.031250 0.156250
s 0
usemtl m_bb4047a7-05a3-c8ae-b126-7300f8839885
f 62/57/36 64/58/36 61/59/36
f 61/58/37 59/60/37 62/61/37
f 63/59/38 59/62/38 60/63/38
f 63/61/39 58/64/39 64/58/39
f 64/59/40 57/62/40 61/58/40
f 62/57/36 63/61/36 64/58/36
f 61/58/37 57/64/37 59/60/37
f 63/59/38 62/58/38 59/62/38
f 63/61/39 60/60/39 58/64/39
f 64/59/40 58/63/40 57/62/40
o drive17
v 0.318328 0.211300 -0.187500
v 0.227378 0.575103 -0.187500
v 0.318328 0.211300 -0.250000
v 0.227378 0.575103 -0.250000
v 0.439596 0.241617 -0.187500
v 0.439596 0.241617 -0.250000
v 0.348645 0.605420 -0.250000
v 0.348645 0.605420 -0.187500
vn 0.9701 0.2425 -0.0000
vn 0.2425 -0.9701 -0.0000
vn -0.0000 -0.0000 -1.0000
vn -0.2425 0.9701 -0.0000
vn -0.0000 -0.0000 1.0000
vt 0.046875 0.031250
vt 0.031250 0.125000
vt 0.031250 0.031250
vt 0.046875 0.156250
vt 0.046875 0.125000
vt 0.000000 0.125000
vt 0.000000 0.031250
vt 0.031250 0.156250
s 0
usemtl m_bb4047a7-05a3-c8ae-b126-7300f8839885
f 70/65/41 72/66/41 69/67/41
f 69/66/42 67/68/42 70/69/42
f 71/67/43 67/70/43 68/71/43
f 71/66/44 66/68/44 72/69/44
f 72/66/45 65/71/45 69/67/45
f 70/65/41 71/69/41 72/66/41
f 69/66/42 65/72/42 67/68/42
f 71/67/43 70/66/43 67/70/43
f 71/66/44 68/72/44 66/68/44
f 72/66/45 66/70/45 65/71/45
o drive18
v 0.212219 0.635737 -0.187500
v 0.121268 0.999541 -0.187500
v 0.212219 0.635737 -0.250000
v 0.121268 0.999541 -0.250000
v 0.333487 0.666054 -0.187500
v 0.333487 0.666054 -0.250000
v 0.242536 1.029858 -0.250000
v 0.242536 1.029858 -0.187500
vn 0.9701 0.2425 -0.0000
vn 0.2425 -0.9701 -0.0000
vn -0.0000 -0.0000 -1.0000
vn -0.2425 0.9701 -0.0000
vn -0.0000 -0.0000 1.0000
vt 0.046875 0.031250
vt 0.031250 0.125000
vt 0.031250 0.031250
vt 0.046875 0.156250
vt 0.046875 0.125000
vt 0.000000 0.125000
vt 0.000000 0.031250
vt 0.031250 0.156250
s 0
usemtl m_bb4047a7-05a3-c8ae-b126-7300f8839885
f 78/73/46 80/74/46 77/75/46
f 77/74/47 75/76/47 78/77/47
f 79/75/48 75/78/48 76/79/48
f 79/74/49 74/76/49 80/77/49
f 80/74/50 73/79/50 77/75/50
f 78/73/46 79/77/46 80/74/46
f 77/74/47 73/80/47 75/76/47
f 79/75/48 78/74/48 75/78/48
f 79/74/49 76/80/49 74/76/49
f 80/74/50 74/78/50 73/79/50
o drive19
v 0.106109 1.060174 -0.187500
v 0.015159 1.423978 -0.187500
v 0.106109 1.060174 -0.250000
v 0.015159 1.423978 -0.250000
v 0.227378 1.090491 -0.187500
v 0.227378 1.090491 -0.250000
v 0.136426 1.454295 -0.250000
v 0.136426 1.454295 -0.187500
vn 0.9701 0.2425 -0.0000
vn 0.2425 -0.9701 -0.0000
vn -0.0000 -0.0000 -1.0000
vn -0.2425 0.9701 -0.0000
vn -0.0000 -0.0000 1.0000
vt 0.046875 0.031250
vt 0.031250 0.125000
vt 0.031250 0.031250
vt 0.046875 0.156250
vt 0.046875 0.125000
vt 0.000000 0.031250
vt 0.000000 0.125000
vt 0.031250 0.156250
s 0
usemtl m_bb4047a7-05a3-c8ae-b126-7300f8839885
f 86/81/51 88/82/51 85/83/51
f 85/82/52 83/84/52 86/85/52
f 86/82/53 84/86/53 87/83/53
f 87/82/54 82/84/54 88/85/54
f 85/82/55 82/86/55 81/87/55
f 86/81/51 87/85/51 88/82/51
f 85/82/52 81/88/52 83/84/52
f 86/82/53 83/87/53 84/86/53
f 87/82/54 84/88/54 82/84/54
f 85/82/55 88/83/55 82/86/55
o drive2
v 0.212219 0.635737 0.375000
v 0.121268 0.999541 0.375000
v 0.212219 0.635737 0.312500
v 0.121268 0.999541 0.312500
v 0.333487 0.666054 0.375000
v 0.333487 0.666054 0.312500
v 0.242536 1.029858 0.312500
v 0.242536 1.029858 0.375000
vn 0.9701 0.2425 -0.0000
vn 0.2425 -0.9701 -0.0000
vn -0.0000 -0.0000 -1.0000
vn -0.2425 0.9701 -0.0000
vn -0.0000 -0.0000 1.0000
vt 0.046875 0.031250
vt 0.031250 0.125000
vt 0.031250 0.031250
vt 0.046875 0.156250
vt 0.046875 0.125000
vt 0.000000 0.125000
vt 0.000000 0.031250
vt 0.031250 0.156250
s 0
usemtl m_bb4047a7-05a3-c8ae-b126-7300f8839885
f 94/89/56 96/90/56 93/91/56
f 93/90/57 91/92/57 94/93/57
f 95/91/58 91/94/58 92/95/58
f 95/90/59 90/92/59 96/93/59
f 96/91/60 89/94/60 93/90/60
f 94/89/56 95/93/56 96/90/56
f 93/90/57 89/96/57 91/92/57
f 95/91/58 94/90/58 91/94/58
f 95/90/59 92/96/59 90/92/59
f 96/91/60 90/95/60 89/94/60
o drive20
v 0.000000 1.484612 -0.187500
v -0.090951 1.848415 -0.187500
v 0.000000 1.484612 -0.250000
v -0.090951 1.848415 -0.250000
v 0.121268 1.514929 -0.187500
v 0.121268 1.514929 -0.250000
v 0.030317 1.878732 -0.250000
v 0.030317 1.878732 -0.187500
vn 0.9701 0.2425 -0.0000
vn 0.2425 -0.9701 -0.0000
vn -0.0000 -0.0000 -1.0000
vn -0.2425 0.9701 -0.0000
vn -0.0000 -0.0000 1.0000
vt 0.046875 0.031250
vt 0.031250 0.125000
vt 0.031250 0.031250
vt 0.046875 0.156250
vt 0.046875 0.125000
vt 0.000000 0.125000
vt 0.000000 0.031250
vt 0.031250 0.156250
s 0
usemtl m_bb4047a7-05a3-c8ae-b126-7300f8839885
f 102/97/61 104/98/61 101/99/61
f 101/98/62 99/100/62 102/101/62
f 103/99/63 99/102/63 100/103/63
f 103/101/64 98/104/64 104/98/64
f 104/99/65 97/102/65 101/98/65
f 102/97/61 103/101/61 104/98/61
f 101/98/62 97/104/62 99/100/62
f 103/99/63 102/98/63 99/102/63
f 103/101/64 100/100/64 98/104/64
f 104/99/65 98/103/65 97/102/65
o drive21
v 0.318328 0.211300 -0.312500
v 0.227378 0.575103 -0.312500
v 0.318328 0.211300 -0.375000
v 0.227378 0.575103 -0.375000
v 0.439596 0.241617 -0.312500
v 0.439596 0.241617 -0.375000
v 0.348645 0.605420 -0.375000
v 0.348645 0.605420 -0.312500
vn 0.9701 0.2425 -0.0000
vn 0.2425 -0.9701 -0.0000
vn -0.0000 -0.0000 -1.0000
vn -0.2425 0.9701 -0.0000
vn -0.0000 -0.0000 1.0000
vt 0.046875 0.031250
vt 0.031250 0.125000
vt 0.031250 0.031250
vt 0.046875 0.156250
vt 0.046875 0.125000
vt 0.000000 0.125000
vt 0.000000 0.031250
vt 0.031250 0.156250
s 0
usemtl m_bb4047a7-05a3-c8ae-b126-7300f8839885
f 110/105/66 112/106/66 109/107/66
f 109/106/67 107/108/67 110/109/67
f 111/107/68 107/110/68 108/111/68
f 112/109/69 108/112/69 106/108/69
f 112/106/70 105/111/70 109/107/70
f 110/105/66 111/109/66 112/106/66
f 109/106/67 105/112/67 107/108/67
f 111/107/68 110/106/68 107/110/68
f 112/109/69 111/106/69 108/112/69
f 112/106/70 106/110/70 105/111/70
o drive22
v 0.212219 0.635737 -0.312500
v 0.121268 0.999541 -0.312500
v 0.212219 0.635737 -0.375000
v 0.121268 0.999541 -0.375000
v 0.333487 0.666054 -0.312500
v 0.333487 0.666054 -0.375000
v 0.242536 1.029858 -0.375000
v 0.242536 1.029858 -0.312500
vn 0.9701 0.2425 -0.0000
vn 0.2425 -0.9701 -0.0000
vn -0.0000 -0.0000 -1.0000
vn -0.2425 0.9701 -0.0000
vn -0.0000 -0.0000 1.0000
vt 0.046875 0.031250
vt 0.031250 0.125000
vt 0.031250 0.031250
vt 0.046875 0.156250
vt 0.046875 0.125000
vt 0.000000 0.125000
vt 0.000000 0.031250
vt 0.031250 0.156250
s 0
usemtl m_bb4047a7-05a3-c8ae-b126-7300f8839885
f 118/113/71 120/114/71 117/115/71
f 117/114/72 115/116/72 118/117/72
f 119/115/73 115/118/73 116/119/73
f 119/114/74 114/116/74 120/117/74
f 120/114/75 113/119/75 117/115/75
f 118/113/71 119/117/71 120/114/71
f 117/114/72 113/120/72 115/116/72
f 119/115/73 118/114/73 115/118/73
f 119/114/74 116/120/74 114/116/74
f 120/114/75 114/118/75 113/119/75
o drive23
v 0.106109 1.060174 -0.312500
v 0.015159 1.423978 -0.312500
v 0.106109 1.060174 -0.375000
v 0.015159 1.423978 -0.375000
v 0.227378 1.090491 -0.312500
v 0.227378 1.090491 -0.375000
v 0.136426 1.454295 -0.375000
v 0.136426 1.454295 -0.312500
vn 0.9701 0.2425 -0.0000
vn 0.2425 -0.9701 -0.0000
vn -0.0000 -0.0000 -1.0000
vn -0.2425 0.9701 -0.0000
vn -0.0000 -0.0000 1.0000
vt 0.046875 0.031250
vt 0.031250 0.125000
vt 0.031250 0.031250
vt 0.046875 0.156250
vt 0.046875 0.125000
vt 0.000000 0.031250
vt 0.000000 0.125000
vt 0.031250 0.156250
s 0
usemtl m_bb4047a7-05a3-c8ae-b126-7300f8839885
f 126/121/76 128/122/76 125/123/76
f 125/122/77 123/124/77 126/125/77
f 126/122/78 124/126/78 127/123/78
f 127/122/79 122/124/79 128/125/79
f 125/122/80 122/126/80 121/127/80
f 126/121/76 127/125/76 128/122/76
f 125/122/77 121/128/77 123/124/77
f 126/122/78 123/127/78 124/126/78
f 127/122/79 124/128/79 122/124/79
f 125/122/80 128/123/80 122/126/80
o drive24
v 0.000000 1.484612 -0.312500
v -0.090951 1.848415 -0.312500
v 0.000000 1.484612 -0.375000
v -0.090951 1.848415 -0.375000
v 0.121268 1.514929 -0.312500
v 0.121268 1.514929 -0.375000
v 0.030317 1.878732 -0.375000
v 0.030317 1.878732 -0.312500
vn 0.9701 0.2425 -0.0000
vn 0.2425 -0.9701 -0.0000
vn -0.0000 -0.0000 -1.0000
vn -0.2425 0.9701 -0.0000
vn -0.0000 -0.0000 1.0000
vt 0.046875 0.031250
vt 0.031250 0.125000
vt 0.031250 0.031250
vt 0.046875 0.156250
vt 0.046875 0.125000
vt 0.000000 0.125000
vt 0.000000 0.031250
vt 0.031250 0.156250
s 0
usemtl m_bb4047a7-05a3-c8ae-b126-7300f8839885
f 134/129/81 136/130/81 133/131/81
f 133/130/82 131/132/82 134/133/82
f 135/131/83 131/134/83 132/135/83
f 135/133/84 130/136/84 136/130/84
f 136/131/85 129/134/85 133/130/85
f 134/129/81 135/133/81 136/130/81
f 133/130/82 129/136/82 131/132/82
f 135/131/83 134/130/83 131/134/83
f 135/133/84 132/132/84 130/136/84
f 136/131/85 130/135/85 129/134/85
o drive3
v 0.106109 1.060174 0.375000
v 0.015159 1.423978 0.375000
v 0.106109 1.060174 0.312500
v 0.015159 1.423978 0.312500
v 0.227378 1.090491 0.375000
v 0.227378 1.090491 0.312500
v 0.136426 1.454295 0.312500
v 0.136426 1.454295 0.375000
vn 0.9701 0.2425 -0.0000
vn 0.2425 -0.9701 -0.0000
vn -0.0000 -0.0000 -1.0000
vn -0.2425 0.9701 -0.0000
vn -0.0000 -0.0000 1.0000
vt 0.046875 0.031250
vt 0.031250 0.125000
vt 0.031250 0.031250
vt 0.046875 0.156250
vt 0.046875 0.125000
vt 0.000000 0.031250
vt 0.000000 0.125000
vt 0.031250 0.156250
s 0
usemtl m_bb4047a7-05a3-c8ae-b126-7300f8839885
f 142/137/86 144/138/86 141/139/86
f 141/138/87 139/140/87 142/141/87
f 142/138/88 140/142/88 143/139/88
f 143/138/89 138/140/89 144/141/89
f 144/139/90 137/143/90 141/138/90
f 142/137/86 143/141/86 144/138/86
f 141/138/87 137/144/87 139/140/87
f 142/138/88 139/143/88 140/142/88
f 143/138/89 140/144/89 138/140/89
f 144/139/90 138/142/90 137/143/90
o drive4
v 0.000000 1.484612 0.375000
v -0.090951 1.848415 0.375000
v 0.000000 1.484612 0.312500
v -0.090951 1.848415 0.312500
v 0.121268 1.514929 0.375000
v 0.121268 1.514929 0.312500
v 0.030317 1.878732 0.312500
v 0.030317 1.878732 0.375000
vn 0.9701 0.2425 -0.0000
vn 0.2425 -0.9701 -0.0000
vn -0.0000 -0.0000 -1.0000
vn -0.2425 0.9701 -0.0000
vn -0.0000 -0.0000 1.0000
vt 0.046875 0.031250
vt 0.031250 0.125000
vt 0.031250 0.031250
vt 0.046875 0.156250
vt 0.046875 0.125000
vt 0.000000 0.125000
vt 0.000000 0.031250
vt 0.031250 0.156250
s 0
usemtl m_bb4047a7-05a3-c8ae-b126-7300f8839885
f 150/145/91 152/146/91 149/147/91
f 149/146/92 147/148/92 150/149/92
f 151/147/93 147/150/93 148/151/93
f 151/149/94 146/152/94 152/146/94
f 152/147/95 145/150/95 149/146/95
f 150/145/91 151/149/91 152/146/91
f 149/146/92 145/152/92 147/148/92
f 151/147/93 150/146/93 147/150/93
f 151/149/94 148/148/94 146/152/94
f 152/147/95 146/151/95 145/150/95
o drive5
v 0.318328 0.211300 0.250000
v 0.227378 0.575103 0.250000
v 0.318328 0.211300 0.187500
v 0.227378 0.575103 0.187500
v 0.439596 0.241617 0.250000
v 0.439596 0.241617 0.187500
v 0.348645 0.605420 0.187500
v 0.348645 0.605420 0.250000
vn 0.9701 0.2425 -0.0000
vn 0.2425 -0.9701 -0.0000
vn -0.0000 -0.0000 -1.0000
vn -0.2425 0.9701 -0.0000
vn -0.0000 -0.0000 1.0000
vt 0.046875 0.031250
vt 0.031250 0.125000
vt 0.031250 0.031250
vt 0.046875 0.156250
vt 0.046875 0.125000
vt 0.000000 0.125000
vt 0.000000 0.031250
vt 0.031250 0.156250
s 0
usemtl m_bb4047a7-05a3-c8ae-b126-7300f8839885
f 158/153/96 160/154/96 157/155/96
f 157/154/97 155/156/97 158/157/97
f 159/155/98 155/158/98 156/159/98
f 159/154/99 154/156/99 160/157/99
f 160/154/100 153/159/100 157/155/100
f 158/153/96 159/157/96 160/154/96
f 157/154/97 153/160/97 155/156/97
f 159/155/98 158/154/98 155/158/98
f 159/154/99 156/160/99 154/156/99
f 160/154/100 154/158/100 153/159/100
o drive6
v 0.212219 0.635737 0.250000
v 0.121268 0.999541 0.250000
v 0.212219 0.635737 0.187500
v 0.121268 0.999541 0.187500
v 0.333487 0.666054 0.250000
v 0.333487 0.666054 0.187500
v 0.242536 1.029858 0.187500
v 0.242536 1.029858 0.250000
vn 0.9701 0.2425 -0.0000
vn 0.2425 -0.9701 -0.0000
vn -0.0000 -0.0000 -1.0000
vn -0.2425 0.9701 -0.0000
vn -0.0000 -0.0000 1.0000
vt 0.046875 0.031250
vt 0.031250 0.125000
vt 0.031250 0.031250
vt 0.046875 0.156250
vt 0.046875 0.125000
vt 0.000000 0.125000
vt 0.000000 0.031250
vt 0.031250 0.156250
s 0
usemtl m_bb4047a7-05a3-c8ae-b126-7300f8839885
f 166/161/101 168/162/101 165/163/101
f 165/162/102 163/164/102 166/165/102
f 167/163/103 163/166/103 164/167/103
f 167/162/104 162/164/104 168/165/104
f 168/162/105 161/167/105 165/163/105
f 166/161/101 167/165/101 168/162/101
f 165/162/102 161/168/102 163/164/102
f 167/163/103 166/162/103 163/166/103
f 167/162/104 164/168/104 162/164/104
f 168/162/105 162/166/105 161/167/105
o drive7
v 0.106109 1.060174 0.250000
v 0.015159 1.423978 0.250000
v 0.106109 1.060174 0.187500
v 0.015159 1.423978 0.187500
v 0.227378 1.090491 0.250000
v 0.227378 1.090491 0.187500
v 0.136426 1.454295 0.187500
v 0.136426 1.454295 0.250000
vn 0.9701 0.2425 -0.0000
vn 0.2425 -0.9701 -0.0000
vn -0.0000 -0.0000 -1.0000
vn -0.2425 0.9701 -0.0000
vn -0.0000 -0.0000 1.0000
vt 0.046875 0.031250
vt 0.031250 0.125000
vt 0.031250 0.031250
vt 0.046875 0.156250
vt 0.046875 0.125000
vt 0.000000 0.031250
vt 0.000000 0.125000
vt 0.031250 0.156250
s 0
usemtl m_bb4047a7-05a3-c8ae-b126-7300f8839885
f 174/169/106 176/170/106 173/171/106
f 173/170/107 171/172/107 174/173/107
f 174/170/108 172/174/108 175/171/108
f 175/170/109 170/172/109 176/173/109
f 176/171/110 169/175/110 173/170/110
f 174/169/106 175/173/106 176/170/106
f 173/170/107 169/176/107 171/172/107
f 174/170/108 171/175/108 172/174/108
f 175/170/109 172/176/109 170/172/109
f 176/171/110 170/174/110 169/175/110
o drive8
v 0.000000 1.484612 0.250000
v -0.090951 1.848415 0.250000
v 0.000000 1.484612 0.187500
v -0.090951 1.848415 0.187500
v 0.121268 1.514929 0.250000
v 0.121268 1.514929 0.187500
v 0.030317 1.878732 0.187500
v 0.030317 1.878732 0.250000
vn 0.9701 0.2425 -0.0000
vn 0.2425 -0.9701 -0.0000
vn -0.0000 -0.0000 -1.0000
vn -0.2425 0.9701 -0.0000
vn -0.0000 -0.0000 1.0000
vt 0.046875 0.031250
vt 0.031250 0.125000
vt 0.031250 0.031250
vt 0.046875 0.156250
vt 0.046875 0.125000
vt 0.000000 0.125000
vt 0.000000 0.031250
vt 0.031250 0.156250
s 0
usemtl m_bb4047a7-05a3-c8ae-b126-7300f8839885
f 182/177/111 184/178/111 181/179/111
f 181/178/112 179/180/112 182/181/112
f 183/179/113 179/182/113 180/183/113
f 183/181/114 178/184/114 184/178/114
f 184/179/115 177/182/115 181/178/115
f 182/177/111 183/181/111 184/178/111
f 181/178/112 177/184/112 179/180/112
f 183/179/113 182/178/113 179/182/113
f 183/181/114 180/180/114 178/184/114
f 184/179/115 178/183/115 177/182/115
o drive9
v 0.318328 0.211300 0.125000
v 0.227378 0.575103 0.125000
v 0.318328 0.211300 0.062500
v 0.227378 0.575103 0.062500
v 0.439596 0.241617 0.125000
v 0.439596 0.241617 0.062500
v 0.348645 0.605420 0.062500
v 0.348645 0.605420 0.125000
vn 0.9701 0.2425 -0.0000
vn 0.2425 -0.9701 -0.0000
vn -0.0000 -0.0000 -1.0000
vn -0.2425 0.9701 -0.0000
vn -0.0000 -0.0000 1.0000
vt 0.046875 0.031250
vt 0.031250 0.125000
vt 0.031250 0.031250
vt 0.046875 0.125000
vt 0.031250 0.156250
vt 0.046875 0.156250
vt 0.000000 0.125000
vt 0.000000 0.031250
s 0
usemtl m_bb4047a7-05a3-c8ae-b126-7300f8839885
f 190/185/116 192/186/116 189/187/116
f 190/188/117 185/189/117 187/190/117
f 191/187/118 187/191/118 188/192/118
f 191/186/119 186/190/119 192/188/119
f 192/186/120 185/192/120 189/187/120
f 190/185/116 191/188/116 192/186/116
f 190/188/117 189/186/117 185/189/117
f 191/187/118 190/186/118 187/191/118
f 191/186/119 188/189/119 186/190/119
f 192/186/120 186/191/120 185/192/120
o rack
v 0.500000 0.000000 0.500000
v 0.500000 -0.000000 -0.500000
v -0.500000 2.000000 0.500000
v -0.500000 2.000000 -0.500000
v -0.500000 0.875000 -0.500000
v -0.500000 0.875000 0.500000
v -0.500000 -0.000000 -0.500000
v -0.500000 0.000000 0.500000
v -0.500000 0.875000 -0.375000
v -0.500000 0.875000 0.375000
v -0.437500 0.875000 -0.375000
v -0.437500 0.687500 -0.187500
v -0.500000 0.312500 -0.187500
v -0.500000 0.312500 0.187500
v -0.500000 0.687500 -0.187500
v -0.500000 0.687500 0.187500
v -0.437500 0.875000 0.375000
v -0.437500 0.125000 0.375000
v -0.437500 0.125000 -0.375000
v -0.500000 0.125000 -0.375000
v -0.500000 0.125000 0.375000
v -0.437500 0.687500 0.187500
v -0.437500 0.312500 0.187500
v -0.437500 0.312500 -0.187500
v 0.015159 1.939366 -0.437500
v 0.015159 1.939366 0.437500
v 0.454524 0.181902 -0.437500
v 0.454524 0.181902 0.437500
v -0.106109 1.909049 -0.437500
v -0.106109 1.909049 0.437500
v 0.333257 0.151585 -0.437500
v 0.333257 0.151585 0.437500
v 0.000000 2.000000 0.500000
v 0.000000 2.000000 -0.500000
v 0.454524 0.181902 -0.500000
v 0.454524 0.181902 0.500000
v 0.454524 0.181902 0.500000
v 0.454524 0.181902 -0.500000
v 0.015159 1.939366 0.500000
v 0.015159 1.939366 -0.500000
vn -0.0000 1.0000 -0.0000
vn -0.0000 -1.0000 -0.0000
vn -0.0000 -0.0000 -1.0000
vn -0.0000 -0.0000 1.0000
vn -1.0000 -0.0000 -0.0000
vn 0.9701 0.2425 -0.0000
vn 0.2425 -0.9701 -0.0000
vn -0.2425 0.9701 -0.0000
vt 0.281250 0.375000
vt 0.031250 0.250000
vt 0.281250 0.250000
vt 0.531250 0.437500
vt 0.281250 0.187500
vt 0.531250 0.187500
vt 0.125000 1.000000
vt 0.250000 0.500000
vt 0.250000 1.000000
vt 0.562500 0.500000
vt 0.687500 1.000000
vt 0.562500 1.000000
vt 0.281250 0.718750
vt 0.531250 1.000000
vt 0.281250 1.000000
vt 0.359375 0.546875
vt 0.453125 0.640625
vt 0.359375 0.640625
vt 0.281250 0.500000
vt 0.250000 0.687500
vt 0.250000 0.468750
vt 0.312500 0.468750
vt 0.500000 0.468750
vt 0.531250 0.500000
vt 0.562500 0.687500
vt 0.531250 0.687500
vt 0.296875 0.687500
vt 0.296875 0.500000
vt 0.500000 0.703125
vt 0.312500 0.718750
vt 0.312500 0.703125
vt 0.343750 0.640625
vt 0.343750 0.546875
vt 0.453125 0.656250
vt 0.359375 0.656250
vt 0.453125 0.531250
vt 0.453125 0.546875
vt 0.468750 0.640625
vt 0.515625 0.687500
vt 0.500000 0.484375
vt 0.515625 0.500000
vt 0.312500 0.484375
vt 0.828125 0.453125
vt 0.609375 0.000000
vt 0.828125 0.000000
vt 0.859375 0.453125
vt 0.609375 0.484375
vt 0.609375 0.453125
vt 0.578125 0.453125
vt 0.515625 0.109375
vt 0.296875 0.140625
vt 0.296875 0.109375
vt 0.531250 0.140625
vt 0.562500 0.453125
vt 0.578125 0.000238
vt 0.859375 0.000238
vt 0.875000 0.453125
vt 0.875000 0.000238
vt 0.593750 0.484375
vt 0.843750 0.500000
vt 0.593750 0.500000
vt 0.031250 0.375000
vt 0.281250 0.437500
vt 0.000000 0.500000
vt 0.812500 0.500000
vt 0.531250 0.718750
vt 0.281250 0.687500
vt 0.562500 0.468750
vt 0.500000 0.718750
vt 0.359375 0.531250
vt 0.468750 0.546875
vt 0.859375 0.000000
vt 0.828125 0.484375
vt 0.578125 0.000000
vt 0.515625 0.140625
vt 0.281250 0.140625
vt 0.562500 0.000238
vt 0.843750 0.484375
s 0
usemtl m_bb4047a7-05a3-c8ae-b126-7300f8839885
f 225/193/121 196/194/121 195/195/121
f 193/196/122 199/197/122 194/198/122
f 226/199/123 199/200/123 196/201/123
f 200/202/124 225/203/124 195/204/124
f 197/205/125 195/206/125 196/207/125
f 205/208/125 208/209/125 207/210/125
f 212/211/125 197/212/125 199/213/125
f 212/214/125 200/196/125 213/215/125
f 213/216/125 198/217/125 202/218/125
f 203/219/124 212/211/124 211/220/124
f 209/221/122 201/222/122 203/223/122
f 204/224/125 211/220/125 216/225/125
f 214/226/125 203/223/125 204/227/125
f 207/210/123 216/225/123 205/208/123
f 205/208/122 215/228/122 206/229/122
f 206/229/124 214/230/124 208/209/124
f 208/227/121 204/209/121 207/226/121
f 209/231/123 213/216/123 202/218/123
f 210/232/121 212/214/121 213/215/121
f 214/230/125 210/233/125 209/231/125
f 215/228/125 211/234/125 210/232/125
f 221/235/126 224/236/126 223/237/126
f 223/237/124 217/238/124 221/235/124
f 221/235/127 218/239/127 222/240/127
f 224/241/123 218/236/123 220/240/123
f 224/242/128 219/243/128 223/244/128
f 227/245/126 193/197/126 194/198/126
f 231/246/126 220/247/126 218/241/126
f 230/248/126 217/249/126 219/250/126
f 231/251/126 226/252/126 225/253/126
f 225/193/121 226/254/121 196/194/121
f 193/196/122 200/255/122 199/197/122
f 226/199/123 194/256/123 199/200/123
f 200/202/124 193/257/124 225/203/124
f 197/205/125 198/258/125 195/206/125
f 205/208/125 206/229/125 208/209/125
f 212/211/125 201/259/125 197/212/125
f 212/214/125 199/255/125 200/196/125
f 213/216/125 200/260/125 198/217/125
f 203/219/124 201/259/124 212/211/124
f 209/221/122 202/261/122 201/222/122
f 204/224/125 203/219/125 211/220/125
f 214/226/125 209/221/125 203/223/125
f 207/210/123 204/224/123 216/225/123
f 205/208/122 216/262/122 215/228/122
f 206/229/124 215/263/124 214/230/124
f 208/227/121 214/210/121 204/209/121
f 209/231/123 210/233/123 213/216/123
f 210/232/121 211/234/121 212/214/121
f 214/230/125 215/263/125 210/233/125
f 215/228/125 216/262/125 211/234/125
f 221/235/126 222/240/126 224/236/126
f 223/237/124 219/264/124 217/238/124
f 221/235/127 217/265/127 218/239/127
f 224/241/123 222/266/123 218/236/123
f 224/242/128 220/267/128 219/243/128
f 227/245/126 228/268/126 193/197/126
f 231/246/126 229/269/126 220/247/126
f 230/248/126 232/238/126 217/249/126
f 231/251/126 232/270/126 226/252/126
